<?xml version="1.0" encoding="utf-8"?>
<!-- Generator: Adobe Illustrator 19.0.0, SVG Export Plug-In . SVG Version: 6.00 Build 0)  -->
<svg version="1.1" id="Layer_1" xmlns="http://www.w3.org/2000/svg" xmlns:xlink="http://www.w3.org/1999/xlink" x="0px" y="0px"
	 viewBox="0 0 707.9 629" style="enable-background:new 0 0 707.9 629;" xml:space="preserve">
<style type="text/css">
	.st0{fill:#E4E4E4;}
	.st1{fill:#83BE44;}
	.st2{opacity:0.75;clip-path:url(#SVGID_2_);}
	.st3{clip-path:url(#SVGID_4_);}
	.st4{clip-path:url(#SVGID_10_);fill:#FFFFFF;}
	.st5{fill:#FFFFFF;}
	.st6{font-family:'OpenSans';}
	.st7{font-size:14.3518px;}
	.st8{font-family:'OpenSans-Bold';}
	.st9{font-size:24.6031px;}
	.st10{font-family:'OpenSans-Light';}
	.st11{font-size:15.8965px;}
	.st12{font-size:21.5277px;}
	.st13{clip-path:url(#SVGID_12_);fill:url(#SVGID_13_);}
	.st14{fill:none;stroke:#FFFFFF;stroke-width:0.25;stroke-miterlimit:10;}
	.st15{font-size:11.7071px;}
</style>
<g>
	<rect x="586.8" y="463.3" class="st0" width="113.2" height="151.7"/>
	<rect x="17.6" y="301.9" class="st1" width="569.4" height="313.2"/>
	<g>
		<defs>
			<rect id="SVGID_1_" x="0.5" y="-2.1" width="706" height="633.6"/>
		</defs>
		<clipPath id="SVGID_2_">
			<use xlink:href="#SVGID_1_"  style="overflow:visible;"/>
		</clipPath>
		<g class="st2">
			<g>
				<defs>
					<rect id="SVGID_3_" x="14.3" y="15.8" width="288.3" height="410.8"/>
				</defs>
				<clipPath id="SVGID_4_">
					<use xlink:href="#SVGID_3_"  style="overflow:visible;"/>
				</clipPath>
				<g class="st3">
					<defs>
						<rect id="SVGID_5_" x="14.3" y="15.8" width="288.3" height="410.8"/>
					</defs>
					<clipPath id="SVGID_6_">
						<use xlink:href="#SVGID_5_"  style="overflow:visible;"/>
					</clipPath>
					<g transform="matrix(1 0 0 1 0 -9.536743e-007)" style="clip-path:url(#SVGID_6_);">
						
							<image style="overflow:visible;" width="646" height="483" xlink:href="1FE9B074.png"  transform="matrix(0.4463 0 0 0.8505 14.3354 15.7515)">
						</image>
					</g>
				</g>
			</g>
		</g>
	</g>
	<g>
		<defs>
			<rect id="SVGID_7_" x="42.1" y="27.6" width="657.8" height="464.4"/>
		</defs>
		<clipPath id="SVGID_8_">
			<use xlink:href="#SVGID_7_"  style="overflow:visible;"/>
		</clipPath>
		<g style="clip-path:url(#SVGID_8_);">
			
				<image style="overflow:visible;" width="1280" height="693" xlink:href="1FE9B074.jpg"  transform="matrix(0.5139 0 0 0.6701 42.1499 27.6201)">
			</image>
		</g>
	</g>
	<g>
		<defs>
			<rect id="SVGID_9_" x="0.5" y="-2.1" width="706" height="633.6"/>
		</defs>
		<clipPath id="SVGID_10_">
			<use xlink:href="#SVGID_9_"  style="overflow:visible;"/>
		</clipPath>
		<path class="st4" d="M142.4,480.4c-0.1,0-0.2,0.1-0.2,0.3c0,0.2,0.1,0.4,0.2,0.4c2.1,0.5,3.2,1.7,3.2,2.5c0,1-2.1,2.5-5.6,2.5
			c-3.5,0-5.6-1.4-5.6-2.5c0-0.7,1.1-2,3.2-2.5c0.1,0,0.2-0.2,0.2-0.4c0-0.2-0.1-0.4-0.2-0.3c-2.1,0.5-3.6,1.8-3.6,3.2
			c0,1.6,2.1,3.3,6,3.3c4,0,6-1.6,6-3.3C146,482.2,144.5,480.9,142.4,480.4"/>
		<path class="st4" d="M139.9,484.9l3.1-8.5c1.2-2.9,1-7.8-0.4-10.3c-0.7-1.4-1.7-2.2-2.7-2.2c-1,0-2,0.8-2.7,2.1
			c-1.3,2.6-1.5,7.4-0.4,10.3L139.9,484.9z M140,468.5c0.8,0,1.4,1.2,1.4,2.7c0,1.5-0.6,2.7-1.4,2.7s-1.4-1.2-1.4-2.7
			C138.6,469.8,139.2,468.5,140,468.5"/>
	</g>
	<text transform="matrix(1.0417 0 0 1 357.8062 579.1973)"><tspan x="0" y="0" class="st5 st6 st7">Rose</tspan><tspan x="32.4" y="0" class="st5 st6 st7">w</tspan><tspan x="43.4" y="0" class="st5 st6 st7">oods </tspan><tspan x="80.2" y="0" class="st5 st6 st7">F</tspan><tspan x="86.8" y="0" class="st5 st6 st7">arm </tspan><tspan x="117.7" y="0" class="st5 st6 st7">h</tspan><tspan x="126" y="0" class="st5 st6 st7">yde</tspan><tspan x="150.1" y="0" class="st5 st6 st7">r</tspan><tspan x="155.8" y="0" class="st5 st6 st7">abad</tspan></text>
	<text transform="matrix(1.0417 0 0 1 65.211 572.1563)" class="st5 st8 st9">Rs 5000</text>
	<text transform="matrix(1.0417 0 0 1 65.211 591.2324)" class="st5 st10 st11">Per Yard</text>
	<text transform="matrix(1.0417 0 0 1 81.129 423.832)" class="st5 st6 st9">Minimum Investment</text>
	<text transform="matrix(1.0417 0 0 1 149.4322 467.4277)" class="st5 st10 st12">Rs 50-60 Lacs</text>
	<g>
		<defs>
			<polygon id="SVGID_11_" points="17.8,53.8 32.9,76.7 17.8,98.5 180.8,98.5 195.9,76.7 180.8,53.8 			"/>
		</defs>
		<clipPath id="SVGID_12_">
			<use xlink:href="#SVGID_11_"  style="overflow:visible;"/>
		</clipPath>
		
			<linearGradient id="SVGID_13_" gradientUnits="userSpaceOnUse" x1="16.7777" y1="745.0012" x2="17.8456" y2="745.0012" gradientTransform="matrix(166.8156 0 0 -166.8156 -2780.9932 124353.9688)">
			<stop  offset="0" style="stop-color:#1ECC8C"/>
			<stop  offset="1" style="stop-color:#A3D024"/>
		</linearGradient>
		<rect x="17.8" y="53.8" class="st13" width="178.1" height="44.7"/>
	</g>
	<g>
		<path class="st5" d="M158.5,62.5l-0.6,0.8c0,0-2.5,3.3-5,3.6c-1,0.1-1.4-0.4-2.1-1.3c-0.7-1-1.7-2.2-3.9-2.1c-4.6,0.2-8.8,6-9,6.3
			l-0.2,0.2l3.7,8.3l4.5,11.2c0.1,0.4,0.4,0.6,0.8,0.8c0.1,0,0.1,0,0.2,0.1c0.3,0.1,0.7,0.1,1,0c0.7-0.3,1.1-1.1,0.8-1.8L143.9,77
			c1.9-1.5,4.1-2.5,6.6-1.3c0.8,0.4,1.4,1,1.9,1.7c0.9,1,1.8,2.1,3.6,1.6c2.7-0.7,5.9-4.3,6-4.4l0.2-0.2L158.5,62.5z M147.5,89.4
			c-0.1,0-0.3,0-0.4,0c-0.1-0.1-0.2-0.1-0.3-0.3l-4.4-10.9l0.7-0.6l4.6,11.2C147.9,89,147.8,89.3,147.5,89.4 M155.9,78
			c-1.2,0.3-1.7-0.2-2.6-1.3c-0.6-0.7-1.2-1.4-2.2-1.9c-3-1.4-5.6-0.2-7.5,1.2l0,0l-0.4,0.4c-0.4,0.3-0.7,0.6-1.1,0.9l-3.2-7.2
			c0.8-1,4.4-5.5,8.1-5.7c1.7-0.1,2.4,0.8,3.1,1.8c0.7,0.9,1.4,1.9,3,1.7c2.2-0.3,4.1-2.2,5.1-3.3l3.1,9.6
			C160.5,74.8,157.9,77.5,155.9,78"/>
		<line class="st5" x1="88.1" y1="432.5" x2="326.2" y2="432.5"/>
		<line class="st14" x1="88.1" y1="432.5" x2="326.2" y2="432.5"/>
	</g>
	<text transform="matrix(1.0417 0 0 1 601.7413 583.5771)" class="st10 st7">Direct </text>
	<text transform="matrix(1.0417 0 0 1 601.7413 600.7979)" class="st10 st7">Enquire</text>
	<text transform="matrix(1.2032 0 0 1 48.2999 80.3794)" class="st5 st6 st15">PRE BOOK</text>
</g>
</svg>
