<?xml version="1.0" encoding="utf-8"?>
<!-- Generator: Adobe Illustrator 19.0.0, SVG Export Plug-In . SVG Version: 6.00 Build 0)  -->
<svg version="1.1" id="Layer_1" xmlns="http://www.w3.org/2000/svg" xmlns:xlink="http://www.w3.org/1999/xlink" x="0px" y="0px" width="827.958px" height="536.974px"
	 viewBox="-253 396.5 828 537" style="enable-background:new -253 396.5 828 537;" xml:space="preserve">
<style type="text/css">
	.st0{font-family:'ArialMT';}
	.st1{font-size:12px;}
	.st2{fill:#4E4E4E;}
	.st3{font-family:'MicrosoftSansSerif';}
	.st4{font-size:18px;}
	.st5{fill:#F0EDEE;}
	.st6{fill:#F5F6F6;}
	.st7{fill:#E7E7E7;}
	.st8{fill:#D5D3D3;}
	.st9{fill:#84BE43;}
	.st10{fill:#71A642;}
	.st11{fill:#E2E2E2;}
	.st12{fill:#D7D7D7;}
	.st13{fill:#F6F6F6;stroke:#C9C9C9;stroke-miterlimit:10;}
	.st14{fill:#C4C4BF;}
	.st15{fill:#FFFFFF;}
	.st16{fill:#E4E4E4;}
	.st17{fill:#E3AF24;}
	.st18{fill:#F3BF1C;}
	.st19{fill:#FFD94A;}
	.st20{fill:#DBA927;}
	.st21{fill:#C3922D;}
	.st22{fill:#FDC72F;}
	.st23{fill:#010101;}
	.st24{font-size:13px;}
	.st25{fill:none;}
</style>
<text transform="matrix(1 0 0 1 -236.2013 852.5927)" class="st0 st1">                             </text>
<text transform="matrix(1 0 0 1 -236.2013 852.5927)" class="st2 st3 st4">Return money with 15-20% ROI after completion</text>
<text transform="matrix(1 0 0 1 151.7802 852.5927)" class="st0 st1">                         </text>
<text transform="matrix(1 0 0 1 -236.2013 875.1924)" class="st2 st3 st4">of Lock in Period and taking the Property Back.</text>
<polygon class="st5" points="387.3,468.7 380.8,475.5 378.7,483.9 382.3,486 388.2,480.4 391,470.7 "/>
<polygon class="st5" points="416.1,483.1 415.5,473.8 410.3,466.6 406.3,468 406.3,475.8 411.2,481.9 412.1,484.5 "/>
<path class="st6" d="M406.3,468l-6.2-0.7l-2.9,2.5v4.5l5.4,15.7c0,0,8.3-3.6,8.6-7.9L406.3,468z"/>
<path class="st7" d="M397.2,474.3l8.9,5.1c1.1,0.6,1.4,1.9,0.8,3c-0.6,1.1-1.9,1.4-3,0.8c1.1,0.6,1.4,1.9,0.8,3
	c-0.6,1.1-1.9,1.4-3,0.8c1.1,0.6,1.4,1.9,0.8,3c-0.6,1.1-1.9,1.4-3,0.8c1.1,0.6,1.4,1.9,0.8,3c-0.6,1.1-1.9,1.4-3,0.8l-15.2-8.6
	l8.6-15.2l2.4,1.4L397.2,474.3z"/>
<polygon class="st8" points="384.1,484.3 379.3,481.5 378.7,483.9 381.5,485.5 382.3,486 "/>
<rect x="368.6" y="466.5" transform="matrix(-0.4926 0.8703 -0.8703 -0.4926 974.9084 377.6527)" class="st9" width="17.5" height="13"/>
<polygon class="st8" points="415.2,480.9 411.3,482.3 412.1,484.5 416.1,483.1 415.9,480.7 "/>
<polygon class="st9" points="428.2,478.8 422.5,462.3 410.3,466.6 416.1,483.1 "/>
<polygon class="st10" points="428.2,478.8 427.4,476.6 415.3,480.9 416.1,483.1 "/>
<path class="st11" d="M397.8,450.2c-0.5,0-0.9-0.4-0.9-0.9v-4.6c0-0.5,0.4-0.9,0.9-0.9s0.9,0.4,0.9,0.9v4.6
	C398.7,449.8,398.3,450.2,397.8,450.2"/>
<path class="st11" d="M387.3,453.1c-0.3,0-0.6-0.2-0.8-0.4l-2.4-3.9c-0.3-0.4-0.1-1,0.3-1.3c0.4-0.3,1-0.1,1.3,0.3l2.4,3.9
	c0.3,0.4,0.1,1-0.3,1.3C387.6,453.1,387.5,453.1,387.3,453.1"/>
<path class="st11" d="M379.8,461c-0.1,0-0.3,0-0.4-0.1l-4.1-2.1c-0.4-0.2-0.6-0.8-0.4-1.2c0.2-0.4,0.8-0.6,1.2-0.4l4.1,2.1
	c0.4,0.2,0.6,0.8,0.4,1.2C380.5,460.9,380.2,461,379.8,461"/>
<path class="st11" d="M408.3,453.1c-0.2,0-0.3,0-0.5-0.1c-0.4-0.3-0.6-0.8-0.3-1.3l2.4-3.9c0.3-0.4,0.8-0.6,1.3-0.3
	c0.4,0.3,0.6,0.8,0.3,1.3l-2.4,3.9C408.9,453,408.6,453.1,408.3,453.1"/>
<path class="st11" d="M415.7,461c-0.3,0-0.6-0.2-0.8-0.5c-0.2-0.4-0.1-1,0.4-1.2l4.1-2.1c0.5-0.2,1-0.1,1.2,0.4
	c0.2,0.4,0.1,1-0.4,1.2l-4.1,2.1C416,461,415.9,461,415.7,461"/>
<rect x="367.1" y="478.5" transform="matrix(-0.8702 -0.4926 0.4926 -0.8702 462.4004 1081.109)" class="st10" width="13" height="2.4"/>
<path class="st6" d="M400.1,467.3c-2.3-0.3-4.6,0.9-5.7,3l-3.4,6.1c-0.6,1.1-0.2,2.4,0.9,3c1.1,0.6,2.4,0.2,3-0.9l2.3-4.2
	L400.1,467.3z"/>
<path class="st12" d="M400.5,493.7c0,0,0-0.1,0.1-0.1l0,0l-17.1-9.7l-1.2,2.1l4.4,2.5l10.8,6.1c0.4,0.2,0.8,0.3,1.2,0.3
	c0.1,0,0.1,0,0.2,0C399.6,494.7,400.2,494.3,400.5,493.7"/>
<path class="st13" d="M-34,556.6l-8.6-8.5h-18.1c-1.2,0-2.1,0.9-2.1,2.1v33.4c0,1.2,0.9,2.1,2.1,2.1h27.3V558
	C-33.4,557.5-33.6,557-34,556.6"/>
<path class="st14" d="M-56.5,563.1H-40c0.2,0,0.5-0.3,0.5-0.6c0-0.5-0.3-0.9-0.5-0.9h-16.5c-0.2,0-0.5,0.3-0.5,0.9
	C-57,562.8-56.7,563.1-56.5,563.1"/>
<path class="st14" d="M-56.2,557.7h6.6c0.2,0,0.5-0.3,0.5-0.6c0-0.5-0.3-0.9-0.5-0.9h-6.6c-0.5,0-0.8,0.3-0.8,0.9
	C-57,557.4-56.7,557.7-56.2,557.7"/>
<path class="st14" d="M-40,566.7h-16.5c-0.2,0-0.5,0.3-0.5,0.9c0,0.3,0.3,0.6,0.5,0.6H-40c0.2,0,0.5-0.3,0.5-0.6
	C-39.5,567-39.8,566.7-40,566.7"/>
<path class="st14" d="M-40,572h-16.5c-0.2,0-0.5,0.3-0.5,0.9c0,0.3,0.3,0.6,0.5,0.6H-40c0.2,0,0.5-0.3,0.5-0.6
	C-39.5,572.3-39.8,572-40,572"/>
<path class="st14" d="M-40,576.7h-16.5c-0.2,0-0.5,0.3-0.5,0.9c0,0.3,0.3,0.6,0.5,0.6H-40c0.2,0,0.5-0.3,0.5-0.6
	C-39.5,577-39.8,576.7-40,576.7"/>
<path class="st9" d="M-42.7,548v7.2c0,1.2,0.9,2.1,2.1,2.1h7.2L-42.7,548z"/>
<path class="st9" d="M-34.8,572.4c4.4,0,7.9,3.5,7.9,7.9c0,4.4-3.5,7.9-7.9,7.9s-7.9-3.5-7.9-7.9C-42.7,575.9-39.2,572.4-34.8,572.4
	"/>
<path class="st15" d="M-30.8,576.4c-0.3-0.2-0.7-0.1-0.9,0.2l-3.5,5.3l-2.5-2.1c-0.3-0.2-0.7-0.2-0.9,0.1c-0.2,0.3-0.2,0.7,0.1,0.9
	l3,2.6c0.1,0.1,0.3,0.1,0.4,0.1h0.1c0.2,0,0.3-0.1,0.4-0.3l3.9-5.8C-30.5,577.1-30.5,576.6-30.8,576.4"/>
<path class="st9" d="M325.1,470.3c-15.8,26.7-31.5,53.4-47.3,80.1c-11.7,19.8-23.4,39.6-35.1,59.4c0.8-0.3,1.5-0.6,2.3-0.9
	c-29.2-12-58.5-24-87.7-36c-0.6-0.2-1.2-0.5-1.7-0.7c-0.6-0.2-1.6,0-1.9,0.5c-19.4,24.7-38.8,49.5-58.2,74.2
	c-0.3,0.4-0.6,0.7-0.9,1.1c0.2-0.3,0.5-0.3-0.3,0c-2,0.9-4,1.8-6.1,2.7c-8.4,3.7-16.7,7.5-25.1,11.2L16,683c-2.3,1-3.9,3.6-5.5,5.5
	c-5.3,5.9-10.7,11.9-16,17.8c-14,15.6-28.1,31.2-42.1,46.8c-4.6,5.2-9.3,10.3-13.9,15.5c-1.7,1.9,1.1,4.8,2.8,2.8
	c22.3-24.7,44.5-49.5,66.8-74.2c3.1-3.5,6.3-7,9.4-10.5c0.4-0.5-0.6,0.3,0,0s1.2-0.6,1.9-0.8l8.1-3.6c18.5-8.3,36.9-16.5,55.4-24.8
	c4.7-2.1,9.4-4.2,14.1-6.3c0.8-0.4,1.5-1.7,2-2.3c1.8-2.3,3.6-4.5,5.3-6.8c12.5-16,25.1-32,37.6-48c4.9-6.2,9.7-12.4,14.6-18.6
	c-0.7,0.2-1.3,0.3-1.9,0.5c29.2,12,58.5,24,87.7,36c0.6,0.2,1.2,0.5,1.7,0.7c0.8,0.3,1.8-0.2,2.3-0.9c15.8-26.7,31.5-53.4,47.3-80.1
	c11.7-19.8,23.4-39.6,35.1-59.4C329.9,470,326.4,468,325.1,470.3"/>
<path class="st15" d="M288.4,475.2c0-20,16.1-36.2,36.1-36.3c20,0,36.2,16.1,36.3,36.1s-16.1,36.2-36.1,36.3
	C304.7,511.3,288.5,495.2,288.4,475.2"/>
<path class="st9" d="M300,475.5c0-13.6,11-24.7,24.6-24.7s24.7,11,24.7,24.6s-11,24.7-24.6,24.7C311.1,500.2,300,489.1,300,475.5"/>
<path class="st15" d="M127.9,574.7c0-14.9,12-27,26.9-27s27,12,27,26.9c0,14.9-12,27-26.9,27C140,601.6,127.9,589.6,127.9,574.7"/>
<path class="st9" d="M229.6,609.5c0-7.8,6.3-14.2,14.2-14.2c7.8,0,14.2,6.3,14.2,14.2c0,7.8-6.3,14.2-14.2,14.2
	C236,623.7,229.6,617.3,229.6,609.5"/>
<path class="st9" d="M135.7,574.7c0-10.5,8.5-19,19-19.1c10.5,0,19,8.5,19.1,19c0,10.5-8.5,19-19,19.1
	C144.3,593.7,135.7,585.2,135.7,574.7"/>
<path class="st15" d="M-5.5,688c0-11.3,9.1-20.4,20.4-20.5c11.3,0,20.4,9.1,20.5,20.4c0,11.3-9.1,20.4-20.4,20.5
	C3.7,708.4-5.4,699.3-5.5,688"/>
<path class="st9" d="M84.8,648.7c0-6.1,4.9-11.1,11-11.1s11.1,4.9,11.1,11c0,6.1-4.9,11.1-11,11.1C89.7,659.8,84.8,654.8,84.8,648.7
	"/>
<path class="st9" d="M1.4,688.4c0-7.7,6.2-13.9,13.9-13.9s13.9,6.2,13.9,13.9s-6.2,13.9-13.9,13.9C7.7,702.3,1.4,696.1,1.4,688.4"/>
<polygon class="st9" points="-39.9,768.6 -58.5,766.9 -67,750.9 -71.6,787.2 "/>
<path class="st9" d="M-39.9,766.6c-6.2-0.6-12.4-1.2-18.6-1.8c0.6,0.3,1.2,0.7,1.7,1l-8.5-15.9c-1-2-3.5-0.8-3.7,1
	c-1.5,12.1-3.1,24.2-4.6,36.3c-0.2,1.6,1.8,2.4,3,1.7c10.6-6.2,21.1-12.4,31.7-18.6c2.2-1.3,0.2-4.8-2-3.5
	c-10.6,6.2-21.1,12.4-31.7,18.6c1,0.6,2,1.1,3,1.7c1.5-12.1,3.1-24.2,4.6-36.2c-1.2,0.3-2.5,0.7-3.7,1c1.5,2.7,2.9,5.5,4.4,8.2
	c1,1.9,2,3.8,3,5.7c0.4,0.8,0.9,2.2,1.8,2.7c0.8,0.5,2.3,0.4,3.2,0.5c2.1,0.2,4.3,0.4,6.4,0.6c3.3,0.3,6.6,0.6,10,0.9
	C-37.3,770.9-37.4,766.9-39.9,766.6"/>
<text transform="matrix(1 0 0 1 425.8828 430.8241)" class="st2 st3 st4">Land Acquisition</text>
<text transform="matrix(1 0 0 1 425.8826 450.7897)" class="st2 st3 st4">by PropTrading.</text>
<text transform="matrix(1 0 0 1 107.3709 725.7889)" class="st2 st3 st4">Handing over registry and</text>
<text transform="matrix(1 0 0 1 107.3709 747.3895)" class="st2 st3 st4">buy back agreement </text>
<text transform="matrix(1 0 0 1 107.3709 768.9891)" class="st2 st3 st4">to investor.</text>
<path class="st16" d="M90.6,718.5c0,0-22.1-8.5-22.7-8.7c-0.4,0.2-22.7,8.7-22.7,8.7v16c0,11.1,3.2,25.6,22.7,31
	c19.5-5.4,22.6-20.1,22.6-31C90.6,729,90.6,718.5,90.6,718.5"/>
<path class="st15" d="M86.1,721.5c0,0-17.8-7.2-18.3-7.3c-0.4,0.1-18.3,7-18.3,7v13.5c0,9.3,1.8,22,18.3,26.6
	c16.5-4.6,18.3-17.5,18.3-26.6C86.1,730,86.1,721.5,86.1,721.5"/>
<path class="st9" d="M76.5,733.4c-0.1-0.4-0.6-0.8-1-0.8l-4.6-0.7l-2-4c-0.2-0.4-0.7-0.7-1.1-0.7s-0.9,0.2-1.1,0.7l-2,4l-4.6,0.7
	c-0.4,0.1-0.9,0.4-1,0.8c-0.1,0.4,0,0.9,0.3,1.2l3.3,3.2l-0.8,4.6c-0.1,0.4,0.1,0.9,0.6,1.2c0.2,0.1,0.4,0.2,0.8,0.2
	c0.2,0,0.4,0,0.6-0.1l4-2.1l4,2.1c0.2,0.1,0.4,0.1,0.6,0.1c0.2,0,0.6-0.1,0.8-0.2c0.4-0.2,0.6-0.8,0.6-1.2l-0.8-4.6l3.3-3.2
	C76.6,734.3,76.7,733.8,76.5,733.4"/>
<text transform="matrix(1 0 0 1 342.8582 628.9569)" class="st2 st3 st4">Taking Money From</text>
<text transform="matrix(1 0 0 1 344.8582 647.5565)" class="st2 st3 st4">Investor</text>
<path class="st17" d="M316.6,639.8c-6.9,0-12.5-1.4-12.5-2.9v3.4c0,1.5,5.6,2.9,12.5,2.9s12.4-1.4,12.5-2.9v-3.4
	C329.1,638.4,323.5,639.8,316.6,639.8"/>
<path class="st18" d="M315.2,634.5c-6.9,0-12.5-1.4-12.5-2.9v3.4c0,1.5,5.6,2.9,12.5,2.9s12.4-1.4,12.5-2.9v-3.4
	C327.7,633.1,322.1,634.5,315.2,634.5"/>
<path class="st17" d="M318.1,629.3c-6.9,0-12.5-1.4-12.5-2.9v3.4c0,1.5,5.6,2.9,12.5,2.9s12.4-1.4,12.5-2.9v-3.4
	C330.5,627.8,324.9,629.3,318.1,629.3"/>
<path class="st19" d="M327.7,620.7c0,1.5-5.6,2.8-12.5,2.8s-12.5-1.4-12.5-2.8c0-1.5,5.6-2.5,12.5-2.5S327.7,619.3,327.7,620.7"/>
<path class="st18" d="M315.2,623.5c-6.9,0-12.5-1.4-12.5-2.9v3.4c0,1.5,5.6,2.9,12.5,2.9s12.4-1.4,12.5-2.9v-3.4
	C327.7,622.1,322.1,623.5,315.2,623.5"/>
<path class="st20" d="M304.7,622.1v3.4c0.3,0.1,0.6,0.2,1,0.3v-3.4C305.3,622.3,305,622.2,304.7,622.1"/>
<path class="st20" d="M324.8,622.4v3.4c0.3-0.1,0.7-0.2,1-0.3v-3.3C325.4,622.2,325.1,622.3,324.8,622.4"/>
<path class="st20" d="M307.1,622.8v3.4c0.3,0.1,0.6,0.1,1,0.2V623C307.7,622.9,307.4,622.8,307.1,622.8"/>
<path class="st20" d="M322.4,623v3.4c0.3-0.1,0.7-0.1,1-0.2v-3.4C323,622.8,322.7,622.9,322.4,623"/>
<path class="st20" d="M309.5,623.2v3.4c0.3,0,0.6,0.1,1,0.1v-3.4C310.1,623.2,309.8,623.2,309.5,623.2"/>
<path class="st20" d="M320,623.3v3.4c0.3,0,0.6-0.1,1-0.1v-3.4C320.6,623.2,320.3,623.2,320,623.3"/>
<path class="st20" d="M311.8,623.4v3.4c0.3,0,0.6,0,1,0.1v-3.4C312.5,623.4,312.2,623.4,311.8,623.4"/>
<path class="st20" d="M317.6,623.5v3.4c0.3,0,0.6,0,1-0.1v-3.4C318.2,623.4,317.9,623.4,317.6,623.5"/>
<path class="st20" d="M315.2,623.5c-0.2,0-0.3,0-0.5,0v3.4c0.2,0,0.3,0,0.5,0s0.3,0,0.5,0v-3.4C315.5,623.5,315.4,623.5,315.2,623.5
	"/>
<path class="st21" d="M307.5,627.9v3.3c0.3,0.1,0.6,0.2,1,0.3v-3.4C308.1,628.1,307.8,628,307.5,627.9"/>
<path class="st21" d="M327.7,628.2v3.4c0.3-0.1,0.7-0.2,1-0.3v-3.4C328.3,628,328,628.1,327.7,628.2"/>
<path class="st21" d="M309.9,628.5v3.4c0.3,0.1,0.6,0.1,1,0.2v-3.4C310.6,628.6,310.2,628.6,309.9,628.5"/>
<path class="st21" d="M325.3,628.7v3.4c0.3-0.1,0.7-0.1,1-0.2v-3.4C325.9,628.6,325.6,628.6,325.3,628.7"/>
<path class="st21" d="M312.3,628.9v3.4c0.3,0,0.6,0.1,1,0.1V629C313,629,312.6,629,312.3,628.9"/>
<path class="st21" d="M322.9,629v3.4c0.3,0,0.6-0.1,1-0.1v-3.4C323.5,629,323.2,629,322.9,629"/>
<path class="st21" d="M314.7,629.1v3.4c0.3,0,0.6,0,1,0.1v-3.4C315.4,629.2,315,629.2,314.7,629.1"/>
<path class="st21" d="M320.5,629.2v3.4c0.3,0,0.6,0,1-0.1v-3.4C321.1,629.2,320.8,629.2,320.5,629.2"/>
<path class="st21" d="M318.1,629.3c-0.2,0-0.3,0-0.5,0v3.4c0.2,0,0.3,0,0.5,0s0.3,0,0.5,0v-3.4C318.4,629.3,318.2,629.3,318.1,629.3
	"/>
<path class="st20" d="M304.7,633.1v3.4c0.3,0.1,0.6,0.2,1,0.3v-3.4C305.3,633.3,305,633.2,304.7,633.1"/>
<path class="st20" d="M324.8,633.4v3.4c0.3-0.1,0.7-0.2,1-0.3v-3.4C325.4,633.2,325.1,633.3,324.8,633.4"/>
<path class="st20" d="M307.1,633.8v3.4c0.3,0.1,0.6,0.1,1,0.2V634C307.7,633.9,307.4,633.9,307.1,633.8"/>
<path class="st20" d="M322.4,634v3.4c0.3-0.1,0.7-0.1,1-0.2v-3.4C323,633.9,322.7,633.9,322.4,634"/>
<path class="st20" d="M309.5,634.2v3.4c0.3,0,0.6,0.1,1,0.1v-3.4C310.1,634.3,309.8,634.2,309.5,634.2"/>
<path class="st20" d="M320,634.3v3.4c0.3,0,0.6-0.1,1-0.1v-3.4C320.6,634.2,320.3,634.3,320,634.3"/>
<path class="st20" d="M311.8,634.4v3.4c0.3,0,0.6,0,1,0.1v-3.4C312.5,634.5,312.2,634.4,311.8,634.4"/>
<path class="st20" d="M317.6,634.5v3.4c0.3,0,0.6,0,1-0.1v-3.4C318.2,634.4,317.9,634.5,317.6,634.5"/>
<path class="st20" d="M315.2,634.5c-0.2,0-0.3,0-0.5,0v3.4c0.2,0,0.3,0,0.5,0s0.3,0,0.5,0v-3.4C315.5,634.5,315.4,634.5,315.2,634.5
	"/>
<path class="st21" d="M306.1,638.4v3.4c0.3,0.1,0.6,0.2,1,0.3v-3.3C306.7,638.6,306.4,638.5,306.1,638.4"/>
<path class="st21" d="M326.2,638.7v3.4c0.3-0.1,0.7-0.2,1-0.3v-3.4C326.9,638.5,326.6,638.6,326.2,638.7"/>
<path class="st21" d="M308.5,639.1v3.4c0.3,0.1,0.6,0.1,1,0.2v-3.4C309.1,639.2,308.8,639.1,308.5,639.1"/>
<path class="st21" d="M323.8,639.2v3.4c0.3-0.1,0.7-0.1,1-0.2V639C324.5,639.1,324.2,639.2,323.8,639.2"/>
<path class="st21" d="M310.9,639.5v3.4c0.3,0,0.6,0.1,1,0.1v-3.4C311.5,639.5,311.2,639.5,310.9,639.5"/>
<path class="st21" d="M321.4,639.6v3.4c0.3,0,0.6-0.1,1-0.1v-3.4C322.1,639.5,321.8,639.5,321.4,639.6"/>
<path class="st21" d="M313.3,639.7v3.4c0.3,0,0.6,0,1,0.1v-3.4C313.9,639.7,313.6,639.7,313.3,639.7"/>
<path class="st21" d="M319,639.7v3.4c0.3,0,0.6,0,1-0.1v-3.4C319.7,639.7,319.4,639.7,319,639.7"/>
<path class="st21" d="M316.6,639.8c-0.2,0-0.3,0-0.5,0v3.4c0.2,0,0.3,0,0.5,0s0.3,0,0.5,0v-3.4C317,639.8,316.8,639.8,316.6,639.8"
	/>
<path class="st22" d="M327.3,635.7c-1.4,1.2-6.2,2.2-12.1,2.2c-4.6,0-8.5-0.6-10.7-1.5c-0.2,0.2-0.3,0.4-0.3,0.6
	c0,1.5,5.6,2.8,12.5,2.8s12.5-1.4,12.5-2.8C329.1,636.5,328.4,636,327.3,635.7"/>
<path class="st19" d="M318.1,632.6c-6.3,0-11.5-1.2-12.3-2.5c-1.9,0.4-3,1-3,1.6c0,1.5,5.6,2.8,12.5,2.8s12.5-1.4,12.5-2.8
	c0-0.1,0-0.1,0-0.2C325.3,632.2,321.9,632.6,318.1,632.6"/>
<path class="st22" d="M327.2,624.7c-1.5,1.2-6.3,2.1-12,2.1c-3.7,0-7-0.4-9.3-1c-0.2,0.2-0.3,0.4-0.3,0.6c0,1.5,5.6,2.8,12.5,2.8
	s12.5-1.4,12.5-2.8C330.5,625.8,329.2,625.2,327.2,624.7"/>
<text transform="matrix(1 0 0 1 385.9257 885.2499)" class="st23 st0 st24">.</text>
<rect x="-11" y="512.7" class="st25" width="152.9" height="90"/>
<text transform="matrix(1 0 0 1 -10.965 525.5743)"><tspan x="0" y="0" class="st2 st3 st4">Registring land on</tspan><tspan x="0" y="21.6" class="st2 st3 st4">Investor Name in </tspan><tspan x="0" y="43.2" class="st2 st3 st4">return as Secured</tspan><tspan x="0" y="64.8" class="st2 st3 st4">Collatoral</tspan></text>
</svg>
